<?xml version="1.0" encoding="utf-8"?>
<!DOCTYPE svg PUBLIC "-//W3C//DTD SVG 1.1//EN" "http://www.w3.org/Graphics/SVG/1.1/DTD/svg11.dtd">
<svg version="1.1" id="Layer_1" xmlns="http://www.w3.org/2000/svg" xmlns:xlink="http://www.w3.org/1999/xlink" x="0px" y="0px"
	 width="150px" height="25px" viewBox="0 0 150 25" enable-background="new 0 0 150 25" xml:space="preserve">
<g>
	<path fill="#FFFFFF" d="M42.719,14.554v6.376h-3.199V4.978h6.015c1.819,0,3.241,0.414,4.268,1.244
		c1.027,0.829,1.539,1.985,1.539,3.467c0,0.826-0.215,1.534-0.646,2.126c-0.431,0.592-1.063,1.07-1.895,1.435
		c0.942,0.277,1.62,0.741,2.032,1.391c0.412,0.65,0.619,1.453,0.619,2.41v1.172c0,0.446,0.061,0.912,0.181,1.397
		s0.327,0.845,0.619,1.078v0.23h-3.297c-0.292-0.234-0.482-0.624-0.57-1.172s-0.132-1.067-0.132-1.556v-1.129
		c0-0.796-0.218-1.415-0.652-1.856c-0.435-0.441-1.046-0.663-1.835-0.663C45.766,14.554,42.719,14.554,42.719,14.554z
		 M42.719,12.089h2.761c0.898,0,1.568-0.19,2.01-0.57c0.442-0.38,0.663-0.942,0.663-1.687c0-0.731-0.221-1.311-0.663-1.742
		c-0.442-0.431-1.093-0.646-1.956-0.646h-2.815V12.089z"/>
	<path fill="#FFFFFF" d="M59.338,21.16c-1.709,0-3.075-0.547-4.098-1.643s-1.534-2.487-1.534-4.174v-0.438
		c0-1.761,0.484-3.21,1.452-4.349c0.968-1.139,2.266-1.705,3.895-1.698c1.6,0,2.841,0.482,3.725,1.446
		c0.883,0.964,1.325,2.268,1.325,3.911v1.742h-7.077l-0.022,0.066c0.058,0.778,0.319,1.418,0.783,1.92
		c0.464,0.502,1.093,0.753,1.89,0.753c0.708,0,1.296-0.072,1.764-0.213c0.467-0.143,0.979-0.367,1.534-0.674l0.865,1.977
		c-0.482,0.396-1.114,0.725-1.895,0.984C61.165,21.03,60.296,21.16,59.338,21.16z M59.053,11.322c-0.592,0-1.059,0.227-1.402,0.679
		s-0.555,1.048-0.636,1.786l0.033,0.055h3.922v-0.285c0-0.679-0.159-1.221-0.476-1.627S59.697,11.322,59.053,11.322z"/>
	<path fill="#FFFFFF" d="M72.923,20.93c-0.117-0.27-0.217-0.555-0.301-0.855c-0.083-0.299-0.144-0.607-0.18-0.92
		c-0.328,0.577-0.762,1.055-1.298,1.435c-0.538,0.38-1.178,0.57-1.923,0.57c-1.242,0-2.198-0.319-2.87-0.959
		c-0.672-0.639-1.008-1.51-1.008-2.612c0-1.161,0.448-2.061,1.342-2.7c0.895-0.639,2.2-0.959,3.917-0.959h1.786v-0.942
		c0-0.57-0.15-1.012-0.449-1.325c-0.3-0.313-0.741-0.471-1.325-0.471c-0.518,0-0.919,0.126-1.2,0.378
		c-0.282,0.252-0.422,0.601-0.422,1.046l-3.09-0.011l-0.011-0.066c-0.051-1.001,0.384-1.865,1.304-2.591s2.129-1.09,3.627-1.09
		c1.417,0,2.568,0.36,3.451,1.079s1.325,1.744,1.325,3.073v4.897c0,0.555,0.042,1.077,0.126,1.567
		c0.083,0.489,0.217,0.975,0.399,1.457L72.923,20.93L72.923,20.93z M69.998,18.794c0.562,0,1.063-0.139,1.501-0.417
		c0.438-0.277,0.734-0.599,0.888-0.964v-1.676h-1.786c-0.679,0-1.194,0.17-1.544,0.51c-0.351,0.339-0.526,0.75-0.526,1.232
		c0,0.394,0.132,0.712,0.394,0.953C69.188,18.672,69.546,18.794,69.998,18.794z"/>
	<path fill="#FFFFFF" d="M82.992,18.695c0.57,0,1.026-0.165,1.369-0.495c0.343-0.331,0.515-0.771,0.515-1.324h2.903l0.033,0.066
		c0.029,1.198-0.422,2.2-1.353,3.007c-0.932,0.807-2.087,1.21-3.468,1.21c-1.767,0-3.13-0.559-4.087-1.676
		c-0.957-1.117-1.435-2.553-1.435-4.306v-0.328c0-1.746,0.476-3.181,1.43-4.306c0.952-1.125,2.313-1.687,4.081-1.687
		c1.461,0,2.638,0.417,3.533,1.249c0.895,0.832,1.328,1.928,1.298,3.287l-0.022,0.066h-2.914c0-0.613-0.168-1.123-0.504-1.528
		s-0.8-0.608-1.391-0.608c-0.847,0-1.445,0.328-1.792,0.984c-0.347,0.657-0.52,1.503-0.52,2.538v0.328
		c0,1.058,0.173,1.909,0.52,2.555C81.536,18.373,82.137,18.695,82.992,18.695z"/>
	<path fill="#FFFFFF" d="M93.432,6.173v2.903h1.994v2.246h-1.994v6.036c0,0.46,0.095,0.789,0.285,0.986
		c0.19,0.197,0.446,0.296,0.767,0.296c0.168,0,0.312-0.009,0.433-0.027c0.12-0.018,0.261-0.049,0.421-0.093l0.274,2.312
		c-0.322,0.109-0.636,0.192-0.942,0.246c-0.307,0.055-0.639,0.082-0.997,0.082c-1.103,0-1.952-0.303-2.547-0.909
		c-0.596-0.607-0.893-1.567-0.893-2.882v-6.048h-1.731V9.076h1.731V6.173H93.432z"/>
	<path fill="#FFFFFF" d="M106.513,14.554v6.376h-3.199V4.978h6.015c1.819,0,3.241,0.414,4.268,1.244
		c1.025,0.829,1.539,1.985,1.539,3.467c0,0.826-0.215,1.534-0.646,2.126s-1.063,1.07-1.895,1.435
		c0.942,0.277,1.619,0.741,2.033,1.391c0.412,0.65,0.619,1.453,0.619,2.41v1.172c0,0.446,0.061,0.912,0.18,1.397
		c0.121,0.485,0.328,0.845,0.619,1.078v0.23h-3.297c-0.292-0.234-0.482-0.624-0.57-1.172c-0.088-0.547-0.132-1.067-0.132-1.556
		v-1.129c0-0.796-0.218-1.415-0.652-1.856c-0.435-0.441-1.046-0.663-1.835-0.663C109.559,14.554,106.513,14.554,106.513,14.554z
		 M106.513,12.089h2.76c0.898,0,1.568-0.19,2.01-0.57c0.442-0.38,0.663-0.942,0.663-1.687c0-0.731-0.221-1.311-0.663-1.742
		c-0.442-0.431-1.093-0.646-1.955-0.646h-2.816V12.089z"/>
	<path fill="#FFFFFF" d="M123.133,21.16c-1.709,0-3.075-0.547-4.098-1.643c-1.023-1.096-1.534-2.487-1.534-4.174v-0.438
		c0-1.761,0.483-3.21,1.451-4.349s2.266-1.705,3.895-1.698c1.6,0,2.841,0.482,3.725,1.446s1.325,2.268,1.325,3.911v1.742h-7.077
		l-0.022,0.066c0.058,0.778,0.319,1.418,0.783,1.92c0.464,0.502,1.094,0.753,1.89,0.753c0.708,0,1.296-0.072,1.764-0.213
		c0.467-0.143,0.979-0.367,1.534-0.674l0.865,1.977c-0.482,0.396-1.114,0.725-1.895,0.984
		C124.959,21.03,124.089,21.16,123.133,21.16z M122.848,11.322c-0.592,0-1.059,0.227-1.402,0.679s-0.555,1.048-0.636,1.786
		l0.033,0.055h3.922v-0.285c0-0.679-0.159-1.221-0.476-1.627C123.971,11.525,123.491,11.322,122.848,11.322z"/>
	<path fill="#FFFFFF" d="M135.009,21.16c-1.709,0-3.075-0.547-4.098-1.643c-1.023-1.096-1.534-2.487-1.534-4.174v-0.438
		c0-1.761,0.483-3.21,1.451-4.349s2.266-1.705,3.895-1.698c1.6,0,2.841,0.482,3.725,1.446s1.325,2.268,1.325,3.911v1.742h-7.077
		l-0.022,0.066c0.058,0.778,0.319,1.418,0.783,1.92c0.464,0.502,1.094,0.753,1.89,0.753c0.708,0,1.296-0.072,1.764-0.213
		c0.467-0.143,0.979-0.367,1.534-0.674l0.865,1.977c-0.482,0.396-1.114,0.725-1.895,0.984
		C136.834,21.03,135.965,21.16,135.009,21.16z M134.724,11.322c-0.592,0-1.059,0.227-1.402,0.679
		c-0.343,0.452-0.555,1.048-0.636,1.786l0.033,0.055h3.922v-0.285c0-0.679-0.159-1.221-0.476-1.627
		C135.846,11.525,135.366,11.322,134.724,11.322z"/>
	<path fill="#FFFFFF" d="M145,20.93h-3.199V3.839H145V20.93z"/>
</g>
<path fill="#FFFFFF" d="M25,24c0,0.552-0.448,1-1,1H1c-0.552,0-1-0.448-1-1V1c0-0.552,0.448-1,1-1h23c0.552,0,1,0.448,1,1V24z"/>
<g>
	<path fill="#2BBBAD" d="M6.759,14.082l-0.98-0.028l-0.672,4.844H2.56L4.352,6.186l3.416-0.084c1.624,0,2.744,0.308,3.36,0.924
		c0.653,0.616,0.886,1.68,0.7,3.192c-0.15,1.008-0.476,1.797-0.98,2.366c-0.504,0.569-1.055,0.947-1.652,1.134l1.764,5.18H8.104
		L6.759,14.082z M6.06,12.093l1.176,0.056c1.064,0,1.699-0.662,1.904-1.988c0.224-1.362-0.262-2.044-1.456-2.044
		c-0.28,0-0.644,0.019-1.092,0.056L6.06,12.093z"/>
	<path fill="#2BBBAD" d="M17.119,14.082l-0.98-0.028l-0.672,4.844h-2.548l1.792-12.711l3.416-0.084c1.624,0,2.744,0.308,3.36,0.924
		c0.653,0.616,0.886,1.68,0.7,3.192c-0.15,1.008-0.476,1.797-0.98,2.366s-1.055,0.947-1.652,1.134l1.764,5.18h-2.856L17.119,14.082z
		 M16.419,12.093l1.176,0.056c1.064,0,1.699-0.662,1.904-1.988c0.224-1.362-0.262-2.044-1.456-2.044
		c-0.28,0-0.644,0.019-1.092,0.056L16.419,12.093z"/>
</g>
</svg>
